<?xml version="1.0" encoding="UTF-8" standalone="no"?><svg xmlns="http://www.w3.org/2000/svg" xmlns:xlink="http://www.w3.org/1999/xlink" contentStyleType="text/css" height="491px" preserveAspectRatio="none" style="width:446px;height:491px;background:#FFFFFF;" version="1.1" viewBox="0 0 446 491" width="446px" zoomAndPan="magnify"><defs/><g><!--MD5=[70acab540a3ad58b5c7862b8bcd4458a]
class Negozio--><g id="elem_Negozio"><rect codeLine="1" fill="#F1F1F1" height="145.7813" id="Negozio" rx="2.5" ry="2.5" style="stroke:#181818;stroke-width:0.5;" width="219" x="33.5" y="7"/><ellipse cx="110.25" cy="23" fill="#ADD1B2" rx="11" ry="11" style="stroke:#181818;stroke-width:1.0;"/><path d="M113.2188,28.6406 Q112.6406,28.9375 112,29.0781 Q111.3594,29.2344 110.6563,29.2344 Q108.1563,29.2344 106.8281,27.5938 Q105.5156,25.9375 105.5156,22.8125 Q105.5156,19.6875 106.8281,18.0313 Q108.1563,16.375 110.6563,16.375 Q111.3594,16.375 112,16.5313 Q112.6563,16.6875 113.2188,16.9844 L113.2188,19.7031 Q112.5938,19.125 112,18.8594 Q111.4063,18.5781 110.7813,18.5781 Q109.4375,18.5781 108.75,19.6563 Q108.0625,20.7188 108.0625,22.8125 Q108.0625,24.9063 108.75,25.9844 Q109.4375,27.0469 110.7813,27.0469 Q111.4063,27.0469 112,26.7813 Q112.5938,26.5 113.2188,25.9219 L113.2188,28.6406 Z " fill="#000000"/><text fill="#000000" font-family="sans-serif" font-size="14" lengthAdjust="spacing" textLength="57" x="130.75" y="27.8467">Negozio</text><line style="stroke:#181818;stroke-width:0.5;" x1="34.5" x2="251.5" y1="39" y2="39"/><text fill="#000000" font-family="sans-serif" font-size="14" lengthAdjust="spacing" textLength="92" x="39.5" y="55.9951">nome : string</text><text fill="#000000" font-family="sans-serif" font-size="14" lengthAdjust="spacing" textLength="109" x="39.5" y="72.292">indirizzo : string</text><text fill="#000000" font-family="sans-serif" font-size="14" lengthAdjust="spacing" textLength="207" x="39.5" y="88.5889">prodottiDisponibili : Prodotto[]</text><text fill="#000000" font-family="sans-serif" font-size="14" lengthAdjust="spacing" textLength="111" x="39.5" y="104.8857">clienti[] : Cliente</text><line style="stroke:#181818;stroke-width:0.5;" x1="34.5" x2="251.5" y1="112.1875" y2="112.1875"/><text fill="#000000" font-family="sans-serif" font-size="14" lengthAdjust="spacing" textLength="146" x="39.5" y="129.1826">nTotaleProdotti() : int</text><text fill="#000000" font-family="sans-serif" font-size="14" lengthAdjust="spacing" textLength="175" x="39.5" y="145.4795">CalcolaValProdotti() : float</text></g><!--MD5=[20a748d5ee336a9a91751b0a3d4f0beb]
class Cliente--><g id="elem_Cliente"><rect codeLine="10" fill="#F1F1F1" height="129.4844" id="Cliente" rx="2.5" ry="2.5" style="stroke:#181818;stroke-width:0.5;" width="130" x="7" y="230"/><ellipse cx="44.5" cy="246" fill="#ADD1B2" rx="11" ry="11" style="stroke:#181818;stroke-width:1.0;"/><path d="M47.4688,251.6406 Q46.8906,251.9375 46.25,252.0781 Q45.6094,252.2344 44.9063,252.2344 Q42.4063,252.2344 41.0781,250.5938 Q39.7656,248.9375 39.7656,245.8125 Q39.7656,242.6875 41.0781,241.0313 Q42.4063,239.375 44.9063,239.375 Q45.6094,239.375 46.25,239.5313 Q46.9063,239.6875 47.4688,239.9844 L47.4688,242.7031 Q46.8438,242.125 46.25,241.8594 Q45.6563,241.5781 45.0313,241.5781 Q43.6875,241.5781 43,242.6563 Q42.3125,243.7188 42.3125,245.8125 Q42.3125,247.9063 43,248.9844 Q43.6875,250.0469 45.0313,250.0469 Q45.6563,250.0469 46.25,249.7813 Q46.8438,249.5 47.4688,248.9219 L47.4688,251.6406 Z " fill="#000000"/><text fill="#000000" font-family="sans-serif" font-size="14" lengthAdjust="spacing" textLength="48" x="63.5" y="250.8467">Cliente</text><line style="stroke:#181818;stroke-width:0.5;" x1="8" x2="136" y1="262" y2="262"/><text fill="#000000" font-family="sans-serif" font-size="14" lengthAdjust="spacing" textLength="92" x="13" y="278.9951">nome : string</text><text fill="#000000" font-family="sans-serif" font-size="14" lengthAdjust="spacing" textLength="118" x="13" y="295.292">cognome : string</text><text fill="#000000" font-family="sans-serif" font-size="14" lengthAdjust="spacing" textLength="76" x="13" y="311.5889">codice : int</text><text fill="#000000" font-family="sans-serif" font-size="14" lengthAdjust="spacing" textLength="67" x="13" y="327.8857">saldo : int</text><line style="stroke:#181818;stroke-width:0.5;" x1="8" x2="136" y1="335.1875" y2="335.1875"/><text fill="#000000" font-family="sans-serif" font-size="14" lengthAdjust="spacing" textLength="101" x="13" y="352.1826">getSaldo() : int</text></g><!--MD5=[0135bd918e0e85fbd308a4e0f54657e2]
class Prodotto--><g id="elem_Prodotto"><rect codeLine="18" fill="#F1F1F1" height="113.1875" id="Prodotto" rx="2.5" ry="2.5" style="stroke:#181818;stroke-width:0.5;" width="174" x="172" y="238"/><ellipse cx="224.75" cy="254" fill="#ADD1B2" rx="11" ry="11" style="stroke:#181818;stroke-width:1.0;"/><path d="M227.7188,259.6406 Q227.1406,259.9375 226.5,260.0781 Q225.8594,260.2344 225.1563,260.2344 Q222.6563,260.2344 221.3281,258.5938 Q220.0156,256.9375 220.0156,253.8125 Q220.0156,250.6875 221.3281,249.0313 Q222.6563,247.375 225.1563,247.375 Q225.8594,247.375 226.5,247.5313 Q227.1563,247.6875 227.7188,247.9844 L227.7188,250.7031 Q227.0938,250.125 226.5,249.8594 Q225.9063,249.5781 225.2813,249.5781 Q223.9375,249.5781 223.25,250.6563 Q222.5625,251.7188 222.5625,253.8125 Q222.5625,255.9063 223.25,256.9844 Q223.9375,258.0469 225.2813,258.0469 Q225.9063,258.0469 226.5,257.7813 Q227.0938,257.5 227.7188,256.9219 L227.7188,259.6406 Z " fill="#000000"/><text fill="#000000" font-family="sans-serif" font-size="14" lengthAdjust="spacing" textLength="60" x="245.25" y="258.8467">Prodotto</text><line style="stroke:#181818;stroke-width:0.5;" x1="173" x2="345" y1="270" y2="270"/><text fill="#000000" font-family="sans-serif" font-size="14" lengthAdjust="spacing" textLength="92" x="178" y="286.9951">nome : string</text><text fill="#000000" font-family="sans-serif" font-size="14" lengthAdjust="spacing" textLength="76" x="178" y="303.292">codice : int</text><text fill="#000000" font-family="sans-serif" font-size="14" lengthAdjust="spacing" textLength="78" x="178" y="319.5889">prezzo : int</text><text fill="#000000" font-family="sans-serif" font-size="14" lengthAdjust="spacing" textLength="162" x="178" y="335.8857">quantitaDisponibile : int</text><line style="stroke:#181818;stroke-width:0.5;" x1="173" x2="345" y1="343.1875" y2="343.1875"/></g><!--MD5=[19e17d91bdf8bca791760f54697df235]
class prodottoConfezionato--><g id="elem_prodottoConfezionato"><rect codeLine="25" fill="#F1F1F1" height="64.2969" id="prodottoConfezionato" rx="2.5" ry="2.5" style="stroke:#181818;stroke-width:0.5;" width="184" x="64" y="420"/><ellipse cx="79" cy="436" fill="#ADD1B2" rx="11" ry="11" style="stroke:#181818;stroke-width:1.0;"/><path d="M81.9688,441.6406 Q81.3906,441.9375 80.75,442.0781 Q80.1094,442.2344 79.4063,442.2344 Q76.9063,442.2344 75.5781,440.5938 Q74.2656,438.9375 74.2656,435.8125 Q74.2656,432.6875 75.5781,431.0313 Q76.9063,429.375 79.4063,429.375 Q80.1094,429.375 80.75,429.5313 Q81.4063,429.6875 81.9688,429.9844 L81.9688,432.7031 Q81.3438,432.125 80.75,431.8594 Q80.1563,431.5781 79.5313,431.5781 Q78.1875,431.5781 77.5,432.6563 Q76.8125,433.7188 76.8125,435.8125 Q76.8125,437.9063 77.5,438.9844 Q78.1875,440.0469 79.5313,440.0469 Q80.1563,440.0469 80.75,439.7813 Q81.3438,439.5 81.9688,438.9219 L81.9688,441.6406 Z " fill="#000000"/><text fill="#000000" font-family="sans-serif" font-size="14" lengthAdjust="spacing" textLength="152" x="93" y="440.8467">prodottoConfezionato</text><line style="stroke:#181818;stroke-width:0.5;" x1="65" x2="247" y1="452" y2="452"/><text fill="#000000" font-family="sans-serif" font-size="14" lengthAdjust="spacing" textLength="157" x="70" y="468.9951">tipoConfezione : string</text><line style="stroke:#181818;stroke-width:0.5;" x1="65" x2="247" y1="476.2969" y2="476.2969"/></g><!--MD5=[a0513ef98588296ed64b5e8f275bdc33]
class prodottoFresco--><g id="elem_prodottoFresco"><rect codeLine="28" fill="#F1F1F1" height="64.2969" id="prodottoFresco" rx="2.5" ry="2.5" style="stroke:#181818;stroke-width:0.5;" width="156" x="283" y="420"/><ellipse cx="305.65" cy="436" fill="#ADD1B2" rx="11" ry="11" style="stroke:#181818;stroke-width:1.0;"/><path d="M308.6188,441.6406 Q308.0406,441.9375 307.4,442.0781 Q306.7594,442.2344 306.0563,442.2344 Q303.5563,442.2344 302.2281,440.5938 Q300.9156,438.9375 300.9156,435.8125 Q300.9156,432.6875 302.2281,431.0313 Q303.5563,429.375 306.0563,429.375 Q306.7594,429.375 307.4,429.5313 Q308.0563,429.6875 308.6188,429.9844 L308.6188,432.7031 Q307.9938,432.125 307.4,431.8594 Q306.8063,431.5781 306.1813,431.5781 Q304.8375,431.5781 304.15,432.6563 Q303.4625,433.7188 303.4625,435.8125 Q303.4625,437.9063 304.15,438.9844 Q304.8375,440.0469 306.1813,440.0469 Q306.8063,440.0469 307.4,439.7813 Q307.9938,439.5 308.6188,438.9219 L308.6188,441.6406 Z " fill="#000000"/><text fill="#000000" font-family="sans-serif" font-size="14" lengthAdjust="spacing" textLength="107" x="321.35" y="440.8467">prodottoFresco</text><line style="stroke:#181818;stroke-width:0.5;" x1="284" x2="438" y1="452" y2="452"/><text fill="#000000" font-family="sans-serif" font-size="14" lengthAdjust="spacing" textLength="144" x="289" y="468.9951">dataScadenza : Date</text><line style="stroke:#181818;stroke-width:0.5;" x1="284" x2="438" y1="476.2969" y2="476.2969"/></g><!--MD5=[220550c9b0b007d9bb1e8862492641dd]
link Negozio to Cliente--><g id="link_Negozio_Cliente"><path codeLine="31" d="M118.86,153.24 C110.54,178.15 101.29,205.84 93.22,230 " fill="none" id="Negozio-Cliente" style="stroke:#181818;stroke-width:1.0;"/><text fill="#000000" font-family="sans-serif" font-size="13" lengthAdjust="spacing" textLength="57" x="109" y="196.0669">possiede</text><text fill="#000000" font-family="sans-serif" font-size="13" lengthAdjust="spacing" textLength="24" x="91.5283" y="172.7663">1..1</text><text fill="#000000" font-family="sans-serif" font-size="13" lengthAdjust="spacing" textLength="26" x="68.1704" y="218.7216">1..N</text></g><!--MD5=[d2443942cc02e0ec803049b6355e3f82]
link Negozio to Prodotto--><g id="link_Negozio_Prodotto"><path codeLine="32" d="M182.43,153.24 C197.54,180.91 214.53,212.03 228.65,237.91 " fill="none" id="Negozio-Prodotto" style="stroke:#181818;stroke-width:1.0;"/><text fill="#000000" font-family="sans-serif" font-size="13" lengthAdjust="spacing" textLength="39" x="208" y="196.0669">vende</text><text fill="#000000" font-family="sans-serif" font-size="13" lengthAdjust="spacing" textLength="24" x="160.9587" y="172.7663">1..1</text><text fill="#000000" font-family="sans-serif" font-size="13" lengthAdjust="spacing" textLength="26" x="197.0958" y="226.7619">1..N</text></g><!--MD5=[dc40a0997878aa36a67efd962cc4ed3f]
reverse link Prodotto to prodottoConfezionato--><g id="link_Prodotto_prodottoConfezionato"><path codeLine="33" d="M210.98,368 C198.95,386.16 186.67,404.69 176.78,419.63 " fill="none" id="Prodotto-backto-prodottoConfezionato" style="stroke:#181818;stroke-width:1.0;"/><polygon fill="none" points="205.23,364.01,222.11,351.2,216.9,371.74,205.23,364.01" style="stroke:#181818;stroke-width:1.0;"/></g><!--MD5=[16da86f0562df66563f3789bdd6e142e]
reverse link Prodotto to prodottoFresco--><g id="link_Prodotto_prodottoFresco"><path codeLine="34" d="M306.56,368 C318.47,386.16 330.63,404.69 340.42,419.63 " fill="none" id="Prodotto-backto-prodottoFresco" style="stroke:#181818;stroke-width:1.0;"/><polygon fill="none" points="300.65,371.76,295.54,351.2,312.36,364.08,300.65,371.76" style="stroke:#181818;stroke-width:1.0;"/></g><!--MD5=[3b8d69263cef2c08d886c0ce834c07e7]
@startuml
class Negozio{
  nome : string
  indirizzo : string
  prodottiDisponibili : Prodotto[]
  clienti[] : Cliente
  nTotaleProdotti() : int
  CalcolaValProdotti() : float
}

class Cliente{
  nome : string
  cognome : string
  codice : int
  saldo : int
  getSaldo() : int
}

class Prodotto{
  nome : string
  codice : int
  prezzo : int
  quantitaDisponibile : int
  
}
class prodottoConfezionato{
tipoConfezione : string
}
class prodottoFresco{
dataScadenza : Date  
}
Negozio "1..1"- -"1..N" Cliente : possiede
Negozio "1..1"- - "1..N"Prodotto : vende
Prodotto <|- - prodottoConfezionato
Prodotto <|- - prodottoFresco
@enduml

PlantUML version 1.2022.7(Mon Aug 22 17:01:30 UTC 2022)
(GPL source distribution)
Java Runtime: OpenJDK Runtime Environment
JVM: OpenJDK 64-Bit Server VM
Default Encoding: UTF-8
Language: en
Country: null
--></g></svg>