<?xml version="1.0" encoding="UTF-8" standalone="no"?><svg xmlns="http://www.w3.org/2000/svg" xmlns:xlink="http://www.w3.org/1999/xlink" contentStyleType="text/css" height="555px" preserveAspectRatio="none" style="width:784px;height:555px;background:#FFFFFF;" version="1.1" viewBox="0 0 784 555" width="784px" zoomAndPan="magnify"><defs/><g><!--MD5=[70acab540a3ad58b5c7862b8bcd4458a]
class Negozio--><g id="elem_Negozio"><rect codeLine="1" fill="#F1F1F1" height="129.4844" id="Negozio" rx="2.5" ry="2.5" style="stroke:#181818;stroke-width:0.5;" width="209" x="102.5" y="7"/><ellipse cx="174.25" cy="23" fill="#ADD1B2" rx="11" ry="11" style="stroke:#181818;stroke-width:1.0;"/><path d="M177.2188,28.6406 Q176.6406,28.9375 176,29.0781 Q175.3594,29.2344 174.6563,29.2344 Q172.1563,29.2344 170.8281,27.5938 Q169.5156,25.9375 169.5156,22.8125 Q169.5156,19.6875 170.8281,18.0313 Q172.1563,16.375 174.6563,16.375 Q175.3594,16.375 176,16.5313 Q176.6563,16.6875 177.2188,16.9844 L177.2188,19.7031 Q176.5938,19.125 176,18.8594 Q175.4063,18.5781 174.7813,18.5781 Q173.4375,18.5781 172.75,19.6563 Q172.0625,20.7188 172.0625,22.8125 Q172.0625,24.9063 172.75,25.9844 Q173.4375,27.0469 174.7813,27.0469 Q175.4063,27.0469 176,26.7813 Q176.5938,26.5 177.2188,25.9219 L177.2188,28.6406 Z " fill="#000000"/><text fill="#000000" font-family="sans-serif" font-size="14" lengthAdjust="spacing" textLength="57" x="194.75" y="27.8467">Negozio</text><line style="stroke:#181818;stroke-width:0.5;" x1="103.5" x2="310.5" y1="39" y2="39"/><text fill="#000000" font-family="sans-serif" font-size="14" lengthAdjust="spacing" textLength="92" x="108.5" y="55.9951">nome : string</text><text fill="#000000" font-family="sans-serif" font-size="14" lengthAdjust="spacing" textLength="109" x="108.5" y="72.292">indirizzo : string</text><text fill="#000000" font-family="sans-serif" font-size="14" lengthAdjust="spacing" textLength="197" x="108.5" y="88.5889">prodottiDisponibili : Prodotto</text><line style="stroke:#181818;stroke-width:0.5;" x1="103.5" x2="310.5" y1="95.8906" y2="95.8906"/><text fill="#000000" font-family="sans-serif" font-size="14" lengthAdjust="spacing" textLength="180" x="108.5" y="112.8857">getNProdotti() : Prodotto[]</text><text fill="#000000" font-family="sans-serif" font-size="14" lengthAdjust="spacing" textLength="190" x="108.5" y="129.1826">getValProdotti() : Prodotto[]</text></g><!--MD5=[20a748d5ee336a9a91751b0a3d4f0beb]
class Cliente--><g id="elem_Cliente"><rect codeLine="10" fill="#F1F1F1" height="129.4844" id="Cliente" rx="2.5" ry="2.5" style="stroke:#181818;stroke-width:0.5;" width="130" x="7" y="213"/><ellipse cx="44.5" cy="229" fill="#ADD1B2" rx="11" ry="11" style="stroke:#181818;stroke-width:1.0;"/><path d="M47.4688,234.6406 Q46.8906,234.9375 46.25,235.0781 Q45.6094,235.2344 44.9063,235.2344 Q42.4063,235.2344 41.0781,233.5938 Q39.7656,231.9375 39.7656,228.8125 Q39.7656,225.6875 41.0781,224.0313 Q42.4063,222.375 44.9063,222.375 Q45.6094,222.375 46.25,222.5313 Q46.9063,222.6875 47.4688,222.9844 L47.4688,225.7031 Q46.8438,225.125 46.25,224.8594 Q45.6563,224.5781 45.0313,224.5781 Q43.6875,224.5781 43,225.6563 Q42.3125,226.7188 42.3125,228.8125 Q42.3125,230.9063 43,231.9844 Q43.6875,233.0469 45.0313,233.0469 Q45.6563,233.0469 46.25,232.7813 Q46.8438,232.5 47.4688,231.9219 L47.4688,234.6406 Z " fill="#000000"/><text fill="#000000" font-family="sans-serif" font-size="14" lengthAdjust="spacing" textLength="48" x="63.5" y="233.8467">Cliente</text><line style="stroke:#181818;stroke-width:0.5;" x1="8" x2="136" y1="245" y2="245"/><text fill="#000000" font-family="sans-serif" font-size="14" lengthAdjust="spacing" textLength="92" x="13" y="261.9951">nome : string</text><text fill="#000000" font-family="sans-serif" font-size="14" lengthAdjust="spacing" textLength="118" x="13" y="278.292">cognome : string</text><text fill="#000000" font-family="sans-serif" font-size="14" lengthAdjust="spacing" textLength="76" x="13" y="294.5889">codice : int</text><text fill="#000000" font-family="sans-serif" font-size="14" lengthAdjust="spacing" textLength="67" x="13" y="310.8857">saldo : int</text><line style="stroke:#181818;stroke-width:0.5;" x1="8" x2="136" y1="318.1875" y2="318.1875"/><text fill="#000000" font-family="sans-serif" font-size="14" lengthAdjust="spacing" textLength="101" x="13" y="335.1826">getSaldo() : int</text></g><!--MD5=[0135bd918e0e85fbd308a4e0f54657e2]
class Prodotto--><g id="elem_Prodotto"><rect codeLine="19" fill="#F1F1F1" height="129.4844" id="Prodotto" rx="2.5" ry="2.5" style="stroke:#181818;stroke-width:0.5;" width="174" x="231" y="419"/><ellipse cx="283.75" cy="435" fill="#ADD1B2" rx="11" ry="11" style="stroke:#181818;stroke-width:1.0;"/><path d="M286.7188,440.6406 Q286.1406,440.9375 285.5,441.0781 Q284.8594,441.2344 284.1563,441.2344 Q281.6563,441.2344 280.3281,439.5938 Q279.0156,437.9375 279.0156,434.8125 Q279.0156,431.6875 280.3281,430.0313 Q281.6563,428.375 284.1563,428.375 Q284.8594,428.375 285.5,428.5313 Q286.1563,428.6875 286.7188,428.9844 L286.7188,431.7031 Q286.0938,431.125 285.5,430.8594 Q284.9063,430.5781 284.2813,430.5781 Q282.9375,430.5781 282.25,431.6563 Q281.5625,432.7188 281.5625,434.8125 Q281.5625,436.9063 282.25,437.9844 Q282.9375,439.0469 284.2813,439.0469 Q284.9063,439.0469 285.5,438.7813 Q286.0938,438.5 286.7188,437.9219 L286.7188,440.6406 Z " fill="#000000"/><text fill="#000000" font-family="sans-serif" font-size="14" lengthAdjust="spacing" textLength="60" x="304.25" y="439.8467">Prodotto</text><line style="stroke:#181818;stroke-width:0.5;" x1="232" x2="404" y1="451" y2="451"/><text fill="#000000" font-family="sans-serif" font-size="14" lengthAdjust="spacing" textLength="92" x="237" y="467.9951">nome : string</text><text fill="#000000" font-family="sans-serif" font-size="14" lengthAdjust="spacing" textLength="76" x="237" y="484.292">codice : int</text><text fill="#000000" font-family="sans-serif" font-size="14" lengthAdjust="spacing" textLength="78" x="237" y="500.5889">prezzo : int</text><text fill="#000000" font-family="sans-serif" font-size="14" lengthAdjust="spacing" textLength="162" x="237" y="516.8857">quantitaDisponibile : int</text><text fill="#000000" font-family="sans-serif" font-size="14" lengthAdjust="spacing" textLength="144" x="237" y="533.1826">dataScadenza : Date</text><line style="stroke:#181818;stroke-width:0.5;" x1="232" x2="404" y1="540.4844" y2="540.4844"/></g><!--MD5=[19e17d91bdf8bca791760f54697df235]
class prodottoConfezionato--><g id="elem_prodottoConfezionato"><rect codeLine="27" fill="#F1F1F1" height="64.2969" id="prodottoConfezionato" rx="2.5" ry="2.5" style="stroke:#181818;stroke-width:0.5;" width="184" x="419" y="245.5"/><ellipse cx="434" cy="261.5" fill="#ADD1B2" rx="11" ry="11" style="stroke:#181818;stroke-width:1.0;"/><path d="M436.9688,267.1406 Q436.3906,267.4375 435.75,267.5781 Q435.1094,267.7344 434.4063,267.7344 Q431.9063,267.7344 430.5781,266.0938 Q429.2656,264.4375 429.2656,261.3125 Q429.2656,258.1875 430.5781,256.5313 Q431.9063,254.875 434.4063,254.875 Q435.1094,254.875 435.75,255.0313 Q436.4063,255.1875 436.9688,255.4844 L436.9688,258.2031 Q436.3438,257.625 435.75,257.3594 Q435.1563,257.0781 434.5313,257.0781 Q433.1875,257.0781 432.5,258.1563 Q431.8125,259.2188 431.8125,261.3125 Q431.8125,263.4063 432.5,264.4844 Q433.1875,265.5469 434.5313,265.5469 Q435.1563,265.5469 435.75,265.2813 Q436.3438,265 436.9688,264.4219 L436.9688,267.1406 Z " fill="#000000"/><text fill="#000000" font-family="sans-serif" font-size="14" lengthAdjust="spacing" textLength="152" x="448" y="266.3467">prodottoConfezionato</text><line style="stroke:#181818;stroke-width:0.5;" x1="420" x2="602" y1="277.5" y2="277.5"/><text fill="#000000" font-family="sans-serif" font-size="14" lengthAdjust="spacing" textLength="157" x="425" y="294.4951">tipoConfezione : string</text><line style="stroke:#181818;stroke-width:0.5;" x1="420" x2="602" y1="301.7969" y2="301.7969"/></g><!--MD5=[a0513ef98588296ed64b5e8f275bdc33]
class prodottoFresco--><g id="elem_prodottoFresco"><rect codeLine="30" fill="#F1F1F1" height="64.2969" id="prodottoFresco" rx="2.5" ry="2.5" style="stroke:#181818;stroke-width:0.5;" width="139" x="638.5" y="245.5"/><ellipse cx="653.5" cy="261.5" fill="#ADD1B2" rx="11" ry="11" style="stroke:#181818;stroke-width:1.0;"/><path d="M656.4688,267.1406 Q655.8906,267.4375 655.25,267.5781 Q654.6094,267.7344 653.9063,267.7344 Q651.4063,267.7344 650.0781,266.0938 Q648.7656,264.4375 648.7656,261.3125 Q648.7656,258.1875 650.0781,256.5313 Q651.4063,254.875 653.9063,254.875 Q654.6094,254.875 655.25,255.0313 Q655.9063,255.1875 656.4688,255.4844 L656.4688,258.2031 Q655.8438,257.625 655.25,257.3594 Q654.6563,257.0781 654.0313,257.0781 Q652.6875,257.0781 652,258.1563 Q651.3125,259.2188 651.3125,261.3125 Q651.3125,263.4063 652,264.4844 Q652.6875,265.5469 654.0313,265.5469 Q654.6563,265.5469 655.25,265.2813 Q655.8438,265 656.4688,264.4219 L656.4688,267.1406 Z " fill="#000000"/><text fill="#000000" font-family="sans-serif" font-size="14" lengthAdjust="spacing" textLength="107" x="667.5" y="266.3467">prodottoFresco</text><line style="stroke:#181818;stroke-width:0.5;" x1="639.5" x2="776.5" y1="277.5" y2="277.5"/><text fill="#000000" font-family="sans-serif" font-size="14" lengthAdjust="spacing" textLength="119" x="644.5" y="294.4951">freschezza : bool</text><line style="stroke:#181818;stroke-width:0.5;" x1="639.5" x2="776.5" y1="301.7969" y2="301.7969"/></g><!--MD5=[220550c9b0b007d9bb1e8862492641dd]
link Negozio to Cliente--><g id="link_Negozio_Cliente"><path codeLine="38" d="M144.34,136.26 C136.33,145.85 128.63,155.92 122,166 C112.52,180.43 103.98,196.95 96.75,212.75 " fill="none" id="Negozio-Cliente" style="stroke:#181818;stroke-width:1.0;"/><text fill="#000000" font-family="sans-serif" font-size="13" lengthAdjust="spacing" textLength="57" x="123" y="179.0669">possiede</text><text fill="#000000" font-family="sans-serif" font-size="13" lengthAdjust="spacing" textLength="24" x="111.7074" y="156.6616">1..1</text><text fill="#000000" font-family="sans-serif" font-size="13" lengthAdjust="spacing" textLength="26" x="72.0352" y="201.8953">1..N</text></g><!--MD5=[2238ca0b479c939bb1fe969ffef6b9c7]
link Cliente to Prodotto--><g id="link_Cliente_Prodotto"><path codeLine="39" d="M93.72,342.24 C101.63,358.92 111.94,375.89 125,389 C154.3,418.41 194.69,439.94 230.95,454.87 " fill="none" id="Cliente-Prodotto" style="stroke:#181818;stroke-width:1.0;"/><text fill="#000000" font-family="sans-serif" font-size="13" lengthAdjust="spacing" textLength="54" x="126" y="385.0669">acquista</text><text fill="#000000" font-family="sans-serif" font-size="13" lengthAdjust="spacing" textLength="24" x="70.8439" y="362.6393">1..1</text><text fill="#000000" font-family="sans-serif" font-size="13" lengthAdjust="spacing" textLength="26" x="196.9773" y="449.0438">1..N</text></g><!--MD5=[8c5913ee8cbf40a768db1c596b101cff]
link Prodotto to Negozio--><g id="link_Prodotto_Negozio"><path codeLine="40" d="M305.41,418.83 C294.05,363.9 276.09,282.66 256,213 C248.66,187.56 239.34,159.97 230.81,136.02 " fill="none" id="Prodotto-Negozio" style="stroke:#181818;stroke-width:1.0;"/><text fill="#000000" font-family="sans-serif" font-size="13" lengthAdjust="spacing" textLength="64" x="290" y="282.0669">è venduto</text><text fill="#000000" font-family="sans-serif" font-size="13" lengthAdjust="spacing" textLength="26" x="276.6111" y="407.9841">1..N</text><text fill="#000000" font-family="sans-serif" font-size="13" lengthAdjust="spacing" textLength="24" x="208.1755" y="156.3939">1..1</text></g><!--MD5=[d2443942cc02e0ec803049b6355e3f82]
link Negozio to Prodotto--><g id="link_Negozio_Prodotto"><path codeLine="41" d="M195.48,136.26 C188.05,192.14 183.63,274.71 207,342 C216.69,369.9 234.47,396.44 253.01,418.79 " fill="none" id="Negozio-Prodotto" style="stroke:#181818;stroke-width:1.0;"/><text fill="#000000" font-family="sans-serif" font-size="13" lengthAdjust="spacing" textLength="39" x="208" y="282.0669">vende</text><text fill="#000000" font-family="sans-serif" font-size="13" lengthAdjust="spacing" textLength="24" x="168.7605" y="156.6616">1..1</text><text fill="#000000" font-family="sans-serif" font-size="13" lengthAdjust="spacing" textLength="26" x="218.4798" y="407.9397">1..N</text></g><!--MD5=[aae008de062a021fec662991c6a965af]
reverse link prodottoConfezionato to Prodotto--><g id="link_prodottoConfezionato_Prodotto"><path codeLine="42" d="M467.48,324.5 C441.1,352.38 407.07,388.36 378.14,418.94 " fill="none" id="prodottoConfezionato-backto-Prodotto" style="stroke:#181818;stroke-width:1.0;"/><polygon fill="none" points="462.44,319.65,481.27,309.93,472.61,329.27,462.44,319.65" style="stroke:#181818;stroke-width:1.0;"/></g><!--MD5=[74dae1d841f43ee75b1b4879e74e9aad]
reverse link prodottoFresco to Prodotto--><g id="link_prodottoFresco_Prodotto"><path codeLine="43" d="M652.33,321.59 C642.14,328.77 631.42,335.86 621,342 C551.06,383.2 466.99,421.36 405.17,447.48 " fill="none" id="prodottoFresco-backto-Prodotto" style="stroke:#181818;stroke-width:1.0;"/><polygon fill="none" points="648.54,315.69,668.84,309.6,656.77,327.02,648.54,315.69" style="stroke:#181818;stroke-width:1.0;"/></g><!--MD5=[96f74d036b46cd105bff04dda40959c0]
@startuml
class Negozio{
  nome : string
  indirizzo : string
  prodottiDisponibili : Prodotto

  getNProdotti() : Prodotto[]
  getValProdotti() : Prodotto[]
}

class Cliente{
  nome : string
  cognome : string
  codice : int
  saldo : int
  
  getSaldo() : int
}

class Prodotto{
  nome : string
  codice : int
  prezzo : int
  quantitaDisponibile : int
  dataScadenza : Date
  
}
class prodottoConfezionato{
tipoConfezione : string
}
class prodottoFresco{
freschezza : bool
  'se freschezza è true significa che il prodotto è fresco, false significa che il prodotto non è fresco'
}




Negozio "1..1"- -"1..N" Cliente : possiede
Cliente "1..1" - - "1..N" Prodotto : acquista
Prodotto "1..N"- -"1..1" Negozio : è venduto
Negozio "1..1"- - "1..N"Prodotto : vende
prodottoConfezionato <|- - Prodotto
prodottoFresco <|-down- Prodotto
@enduml

@startuml
class Negozio{
  nome : string
  indirizzo : string
  prodottiDisponibili : Prodotto

  getNProdotti() : Prodotto[]
  getValProdotti() : Prodotto[]
}

class Cliente{
  nome : string
  cognome : string
  codice : int
  saldo : int
  
  getSaldo() : int
}

class Prodotto{
  nome : string
  codice : int
  prezzo : int
  quantitaDisponibile : int
  dataScadenza : Date
  
}
class prodottoConfezionato{
tipoConfezione : string
}
class prodottoFresco{
freschezza : bool
}




Negozio "1..1"- -"1..N" Cliente : possiede
Cliente "1..1" - - "1..N" Prodotto : acquista
Prodotto "1..N"- -"1..1" Negozio : è venduto
Negozio "1..1"- - "1..N"Prodotto : vende
prodottoConfezionato <|- - Prodotto
prodottoFresco <|-down- Prodotto
@enduml

PlantUML version 1.2022.7(Mon Aug 22 17:01:30 UTC 2022)
(GPL source distribution)
Java Runtime: OpenJDK Runtime Environment
JVM: OpenJDK 64-Bit Server VM
Default Encoding: UTF-8
Language: en
Country: null
--></g></svg>